HIERARCHY
ROOT Hips
{
	OFFSET 0.000000 0.000000 0.000000
	CHANNELS 6 Xposition Yposition Zposition Zrotation Yrotation Xrotation 
	JOINT LowerBack
	{
		OFFSET 0.000000 0.000000 0.000000
		CHANNELS 3 Zrotation Yrotation Xrotation
		JOINT Spine
		{
			OFFSET 0.028270 2.035590 -0.193380
			CHANNELS 3 Zrotation Yrotation Xrotation
			JOINT Spine1
			{
				OFFSET 0.056720 2.048850 -0.042750
				CHANNELS 3 Zrotation Yrotation Xrotation
				JOINT Neck
				{
					OFFSET 0.000000 0.000000 0.000000
					CHANNELS 3 Zrotation Yrotation Xrotation
					JOINT Neck1
					{
						OFFSET -0.054170 1.746240 0.172020
						CHANNELS 3 Zrotation Yrotation Xrotation
						JOINT Head
						{
							OFFSET 0.104070 1.761360 -0.123970
							CHANNELS 3 Zrotation Yrotation Xrotation
							End Site
							{
								OFFSET 0.000000 0.000000 0.000000
							}
						}
					}
				}
				JOINT LeftShoulder
				{
					OFFSET 0.000000 0.000000 0.000000
					CHANNELS 3 Zrotation Yrotation Xrotation
					JOINT LeftArm
					{
						OFFSET 3.362410 1.200890 -0.311210
						CHANNELS 3 Zrotation Yrotation Xrotation
						JOINT LeftForeArm
						{
							OFFSET 4.983000 -0.000000 -0.000000
							CHANNELS 3 Zrotation Yrotation Xrotation
							JOINT LeftHand
							{
								OFFSET 3.483560 -0.000000 -0.000000
								CHANNELS 3 Zrotation Yrotation Xrotation
								JOINT LeftFingerBase
								{
									OFFSET 0.000000 0.000000 0.000000
									CHANNELS 3 Zrotation Yrotation Xrotation
									JOINT LeftHandIndex1
									{
										OFFSET 0.715260 -0.000000 -0.000000
										CHANNELS 3 Zrotation Yrotation Xrotation
										End Site
										{
											OFFSET 0.000000 0.000000 0.000000
										}
									}
								}
								JOINT LThumb
								{
									OFFSET 0.000000 0.000000 0.000000
									CHANNELS 3 Zrotation Yrotation Xrotation
									End Site
									{
										OFFSET 0.000000 0.000000 0.000000
									}
								}
							}
						}
					}
				}
				JOINT RightShoulder
				{
					OFFSET 0.000000 0.000000 0.000000
					CHANNELS 3 Zrotation Yrotation Xrotation
					JOINT RightArm
					{
						OFFSET -3.136600 1.374050 -0.404650
						CHANNELS 3 Zrotation Yrotation Xrotation
						JOINT RightForeArm
						{
							OFFSET -5.241900 -0.000000 -0.000000
							CHANNELS 3 Zrotation Yrotation Xrotation
							JOINT RightHand
							{
								OFFSET -3.444170 -0.000000 -0.000000
								CHANNELS 3 Zrotation Yrotation Xrotation
								JOINT RightFingerBase
								{
									OFFSET 0.000000 0.000000 0.000000
									CHANNELS 3 Zrotation Yrotation Xrotation
									JOINT RightHandIndex1
									{
										OFFSET -0.622530 -0.000000 -0.000000
										CHANNELS 3 Zrotation Yrotation Xrotation
										End Site
										{
											OFFSET 0.000000 0.000000 0.000000
										}
									}
								}
								JOINT RThumb
								{
									OFFSET 0.000000 0.000000 0.000000
									CHANNELS 3 Zrotation Yrotation Xrotation
									End Site
									{
										OFFSET 0.000000 0.000000 0.000000
									}
								}
							}
						}
					}
				}
			}
		}
	}
}
}
MOTION
Frames: 15
Frame Time: 0.008333
3.559388 17.214274 0.920796 -26.615508 -88.852023 37.943351 0.895210 -1.696377 -4.782365 -0.316630 -1.847354 -3.633307 -6.422025 -1.595935 -0.721248 7.600352 -7.087357 -0.217943 -3.921577 -0.370566 2.022623 0.000000 0.000000 0.000000 10.975989 8.308398 -3.072731 -85.610178 -24.350515 18.345137 -177.723292 -51.856055 179.972408 2.036531 -6.588613 -0.134543 -0.025465 1.183672 -0.000000 0.000000 0.000000 0.000000 0.000000 0.000000 0.000000 0.621955 -5.437643 -4.468648 88.363583 24.759975 27.899912 -178.550627 59.381713 179.824915 -11.996486 14.628330 -1.688410 0.170296 -1.121991 -0.000000 0.000000 0.000000 0.000000 0.000000 0.000000 0.000000 
3.563841 17.214563 0.919768 -21.212156 -88.612214 32.571364 0.870241 -1.614169 -4.816381 -0.326530 -1.761404 -3.666728 -6.360353 -1.514587 -0.844514 7.538108 -6.837551 -0.048659 -3.922489 -0.372037 2.068827 0.000000 0.000000 0.000000 10.930879 8.190354 -3.045436 -85.760818 -24.414133 18.707894 -177.764510 -52.014914 179.972011 2.032079 -6.609112 -0.134499 -0.022486 1.184965 -0.000000 0.000000 0.000000 0.000000 0.000000 0.000000 0.000000 0.705481 -5.140904 -4.488965 87.974684 25.287770 27.412597 -178.563631 59.790002 179.823794 -12.088792 14.592864 -1.696657 0.169094 -1.116448 -0.000000 0.000000 0.000000 0.000000 0.000000 0.000000 0.000000 
3.568256 17.214970 0.918674 -17.305112 -88.328675 28.695050 0.848720 -1.534540 -4.853038 -0.331542 -1.678369 -3.703696 -6.281236 -1.437326 -0.982201 7.458696 -6.557387 0.143344 -3.920437 -0.373551 2.121272 0.000000 0.000000 0.000000 10.871624 8.044679 -3.013247 -85.928117 -24.456392 19.084461 -177.813328 -52.171384 179.971411 2.037165 -6.626058 -0.135056 -0.019455 1.186011 -0.000000 0.000000 0.000000 0.000000 0.000000 0.000000 0.000000 0.778015 -4.815244 -4.510897 87.525412 25.894267 26.872521 -178.578174 60.266268 179.822784 -12.170968 14.540057 -1.701319 0.166869 -1.109602 -0.000000 0.000000 0.000000 0.000000 0.000000 0.000000 0.000000 
3.572546 17.215510 0.917489 -14.355089 -88.021580 25.776766 0.822823 -1.454327 -4.896136 -0.333504 -1.594327 -3.744676 -6.185142 -1.360198 -1.132158 7.360512 -6.236727 0.355584 -3.913375 -0.374960 2.179310 0.000000 0.000000 0.000000 10.789169 7.893997 -2.976265 -86.109110 -24.497902 19.487454 -177.866394 -52.334408 179.970602 2.054009 -6.640267 -0.136319 -0.016753 1.186897 -0.000000 0.000000 0.000000 0.000000 0.000000 0.000000 0.000000 0.832657 -4.446194 -4.535669 87.010865 26.576454 26.263414 -178.592442 60.818781 179.821961 -12.234417 14.463472 -1.700300 0.163141 -1.101168 -0.000000 0.000000 0.000000 0.000000 0.000000 0.000000 0.000000 
3.576918 17.216181 0.916248 -12.020879 -87.705520 23.469011 0.786180 -1.371991 -4.939452 -0.333007 -1.506783 -3.789063 -6.065341 -1.280907 -1.296023 7.241093 -5.888975 0.587310 -3.902992 -0.376388 2.242767 0.000000 0.000000 0.000000 10.691688 7.713953 -2.936034 -86.304499 -24.513006 19.891857 -177.929901 -52.484202 179.969579 2.077989 -6.651095 -0.137993 -0.013601 1.187460 -0.000000 0.000000 0.000000 0.000000 0.000000 0.000000 0.000000 0.881546 -4.046818 -4.558327 86.412181 27.366592 25.600319 -178.611463 61.477396 179.821360 -12.293355 14.345892 -1.693592 0.158728 -1.090489 -0.000000 0.000000 0.000000 0.000000 0.000000 0.000000 0.000000 
3.581315 17.216949 0.914925 -10.121021 -87.388373 21.593558 0.740202 -1.285045 -4.988665 -0.330566 -1.413521 -3.836891 -5.924563 -1.196832 -1.468641 7.099414 -5.505834 0.832944 -3.886807 -0.377628 2.310140 0.000000 0.000000 0.000000 10.565826 7.535314 -2.893259 -86.509422 -24.534267 20.317864 -177.997451 -52.636707 179.968385 2.110228 -6.659920 -0.140280 -0.010576 1.187828 -0.000000 0.000000 0.000000 0.000000 0.000000 0.000000 0.000000 0.916304 -3.605431 -4.580254 85.726222 28.257716 24.865888 -178.632256 62.250526 179.820996 -12.340419 14.189953 -1.680601 0.153087 -1.077613 -0.000000 0.000000 0.000000 0.000000 0.000000 0.000000 0.000000 
3.585959 17.217812 0.913562 -8.538812 -87.075933 20.027468 0.684375 -1.193020 -5.036940 -0.325702 -1.313691 -3.887407 -5.757624 -1.107155 -1.651707 6.933491 -5.097890 1.091447 -3.866449 -0.378797 2.381166 0.000000 0.000000 0.000000 10.418485 7.333830 -2.849519 -86.723817 -24.539265 20.742760 -178.073715 -52.775189 179.967058 2.144843 -6.666280 -0.142679 -0.006967 1.187858 -0.000000 0.000000 0.000000 0.000000 0.000000 0.000000 0.000000 0.947948 -3.133073 -4.594979 84.931148 29.273621 24.071714 -178.657728 63.168627 179.820811 -12.393953 13.983532 -1.662219 0.146989 -1.062091 -0.000000 0.000000 0.000000 0.000000 0.000000 0.000000 0.000000 
3.590675 17.218720 0.912154 -7.179951 -86.772681 18.681696 0.621653 -1.094233 -5.089807 -0.318754 -1.206087 -3.939908 -5.568973 -1.010105 -1.837349 6.742943 -4.662382 1.354602 -3.839834 -0.379688 2.453594 0.000000 0.000000 0.000000 10.235850 7.141573 -2.806354 -86.940541 -24.564454 21.188260 -178.151041 -52.917856 179.965654 2.182849 -6.671861 -0.145291 -0.003461 1.187669 -0.000000 0.000000 0.000000 0.000000 0.000000 0.000000 0.000000 0.969239 -2.625457 -4.603117 84.025210 30.408096 23.206024 -178.685170 64.240056 179.820754 -12.451297 13.737418 -1.639450 0.140065 -1.044330 -0.000000 0.000000 0.000000 0.000000 0.000000 0.000000 0.000000 
3.595752 17.219656 0.910734 -6.008084 -86.480617 17.514693 0.554360 -0.988408 -5.141715 -0.309023 -1.090422 -3.993770 -5.356577 -0.905305 -2.027015 6.526224 -4.205667 1.620767 -3.808090 -0.380379 2.527003 0.000000 0.000000 0.000000 10.023754 6.939455 -2.765448 -87.158532 -24.592770 21.636319 -178.232608 -53.052830 179.964214 2.219279 -6.676482 -0.147720 0.000471 1.187137 -0.000000 0.000000 0.000000 0.000000 0.000000 0.000000 0.000000 0.984932 -2.090066 -4.598356 82.991569 31.670670 22.273842 -178.715157 65.487686 179.820685 -12.528286 13.453206 -1.614387 0.132758 -1.024452 -0.000000 0.000000 0.000000 0.000000 0.000000 0.000000 0.000000 
3.601176 17.220603 0.909325 -4.980955 -86.201909 16.485965 0.485867 -0.874982 -5.192330 -0.296301 -0.966471 -4.048365 -5.123095 -0.792207 -2.218111 6.283013 -3.727699 1.885342 -3.770916 -0.380817 2.600137 0.000000 0.000000 0.000000 9.780370 6.732561 -2.728098 -87.373124 -24.630329 22.087411 -178.316443 -53.182753 179.962773 2.253215 -6.681145 -0.149963 0.004710 1.186261 -0.000000 0.000000 0.000000 0.000000 0.000000 0.000000 0.000000 0.991850 -1.527757 -4.577628 81.822431 33.056223 21.270202 -178.746580 66.922219 179.820472 -12.630432 13.142757 -1.588833 0.125023 -1.003004 -0.000000 0.000000 0.000000 0.000000 0.000000 0.000000 0.000000 
3.607013 17.221528 0.907888 -4.054890 -85.938417 15.552790 0.419575 -0.753263 -5.241486 -0.280813 -0.833981 -4.102215 -4.873971 -0.670109 -2.404571 6.012972 -3.231431 2.140445 -3.727573 -0.380880 2.670801 0.000000 0.000000 0.000000 9.499481 6.540690 -2.696124 -87.577805 -24.699812 22.553536 -178.397491 -53.317662 179.961363 2.285872 -6.687870 -0.152220 0.008770 1.185124 -0.000000 0.000000 0.000000 0.000000 0.000000 0.000000 0.000000 0.983397 -0.942849 -4.540561 80.519581 34.556568 20.189157 -178.778750 68.551472 179.820010 -12.758128 12.823726 -1.564780 0.116621 -0.980734 -0.000000 0.000000 0.000000 0.000000 0.000000 0.000000 0.000000 
3.613250 17.222416 0.906408 -3.199083 -85.691116 14.686206 0.358545 -0.623016 -5.287152 -0.262555 -0.693063 -4.154280 -4.613230 -0.538893 -2.583796 5.715485 -2.719995 2.380555 -3.678036 -0.380516 2.737469 0.000000 0.000000 0.000000 9.181318 6.370478 -2.670697 -87.769053 -24.806161 23.035630 -178.474019 -53.459720 179.960002 2.317397 -6.698723 -0.154488 0.012496 1.183761 -0.000000 0.000000 0.000000 0.000000 0.000000 0.000000 0.000000 0.953672 -0.340698 -4.486024 79.083992 36.163702 19.026592 -178.812735 70.384556 179.819195 -12.911592 12.514050 -1.544129 0.107394 -0.958400 -0.000000 0.000000 0.000000 0.000000 0.000000 0.000000 0.000000 
3.619967 17.223298 0.904932 -2.414173 -85.460437 13.887069 0.306808 -0.484397 -5.325194 -0.240977 -0.544198 -4.204772 -4.342912 -0.399060 -2.760128 5.390164 -2.190723 2.606150 -3.622978 -0.379785 2.800313 0.000000 0.000000 0.000000 8.836721 6.206972 -2.652209 -87.946907 -24.930096 23.519031 -178.549353 -53.595251 179.958669 2.347004 -6.713184 -0.156668 0.016205 1.182087 -0.000000 0.000000 0.000000 0.000000 0.000000 0.000000 0.000000 0.896210 0.278118 -4.411476 77.512132 37.861247 17.772389 -178.850544 72.426282 179.817951 -13.090904 12.218145 -1.527178 0.097252 -0.936486 -0.000000 0.000000 0.000000 0.000000 0.000000 0.000000 0.000000 
3.627191 17.224159 0.903373 -1.671606 -85.247030 13.128630 0.266783 -0.337417 -5.353827 -0.216429 -0.387755 -4.252794 -4.068564 -0.250806 -2.931633 5.036842 -1.646406 2.811805 -3.562027 -0.378608 2.857844 0.000000 0.000000 0.000000 8.466421 6.062404 -2.641177 -88.107883 -25.080419 24.009925 -178.621213 -53.728775 179.957359 2.376885 -6.733107 -0.159159 0.019591 1.180153 -0.000000 0.000000 0.000000 0.000000 0.000000 0.000000 0.000000 0.801032 0.908472 -4.319676 75.815353 39.633640 16.416939 -178.896015 74.680951 179.816284 -13.285456 11.948525 -1.514224 0.085883 -0.915671 -0.000000 0.000000 0.000000 0.000000 0.000000 0.000000 0.000000 
3.634847 17.225048 0.901745 -0.957077 -85.050874 12.399173 0.240565 -0.182192 -5.370496 -0.189073 -0.224122 -4.298144 -3.794046 -0.094501 -3.099852 4.655407 -1.088433 2.994884 -3.495229 -0.376964 2.909371 0.000000 0.000000 0.000000 8.076753 5.938850 -2.637716 -88.252811 -25.253578 24.507174 -178.689883 -53.856182 179.956053 2.408014 -6.759465 -0.161759 0.022626 1.177984 -0.000000 0.000000 0.000000 0.000000 0.000000 0.000000 0.000000 0.658645 1.546544 -4.213563 74.004082 41.463813 14.948643 -178.954774 77.152972 179.814248 -13.482550 11.709589 -1.504366 0.073085 -0.896445 -0.000000 0.000000 0.000000 0.000000 0.000000 0.000000 0.000000 
